<svg width="24" height="24" viewBox="0 0 24 24" fill="none" xmlns="http://www.w3.org/2000/svg">
<g clip-path="url(#clip0_25_217)">
<path d="M11.9999 23.1428C9.48892 20.3783 6.08359 18.5876 2.3828 18.0857C1.96157 18.0391 1.57253 17.8381 1.29078 17.5215C1.00902 17.2049 0.854516 16.7952 0.857087 16.3714V2.57138C0.857071 2.32377 0.910696 2.07909 1.01427 1.85418C1.11785 1.62927 1.26892 1.42947 1.45709 1.26852C1.64194 1.1105 1.8583 0.993618 2.0918 0.925638C2.3253 0.857658 2.57058 0.840136 2.81137 0.874236C6.35016 1.46156 9.58746 3.22517 11.9999 5.87995V23.1428Z" stroke="#F20000" stroke-width="1.71429" stroke-linecap="round" stroke-linejoin="round"/>
<path d="M12 23.1428C14.511 20.3783 17.9163 18.5876 21.6171 18.0857C22.0384 18.0391 22.4274 17.8381 22.7092 17.5215C22.9909 17.2049 23.1454 16.7952 23.1429 16.3714V2.57138C23.1429 2.32377 23.0892 2.07909 22.9857 1.85418C22.8821 1.62927 22.731 1.42947 22.5429 1.26852C22.358 1.1105 22.1416 0.993618 21.9081 0.925638C21.6746 0.857658 21.4294 0.840136 21.1886 0.874236C17.6498 1.46156 14.4125 3.22517 12 5.87995V23.1428Z" stroke="#F20000" stroke-width="1.71429" stroke-linecap="round" stroke-linejoin="round"/>
</g>
<defs>
<clipPath id="clip0_25_217">
<rect width="24" height="24" fill="white"/>
</clipPath>
</defs>
</svg>
