<svg width="106" height="25" viewBox="0 0 106 25" fill="none" xmlns="http://www.w3.org/2000/svg">
<path d="M0.56 24V0.223999H6.384V10.336L13.904 0.223999H20.368L11.568 11.68L10.192 12.736L5.744 18.016L6.384 14.496V24H0.56ZM13.104 22.112C12.7093 21.3547 12.3093 20.624 11.904 19.92C11.4987 19.216 11.0933 18.5333 10.688 17.872C10.2933 17.2 9.888 16.5493 9.472 15.92C9.06667 15.28 8.656 14.656 8.24 14.048L10.384 11.712L12.08 9.792C12.3893 10.1653 12.7733 10.704 13.232 11.408C13.6907 12.1013 14.192 12.9013 14.736 13.808C15.2907 14.704 15.8613 15.648 16.448 16.64C17.0347 17.6213 17.6107 18.5973 18.176 19.568C18.7413 20.5387 19.2693 21.44 19.76 22.272C19.8773 22.464 19.9893 22.656 20.096 22.848C20.2133 23.04 20.3253 23.232 20.432 23.424C20.5493 23.616 20.6667 23.808 20.784 24H14.096C13.968 23.7867 13.8347 23.5413 13.696 23.264C13.5573 22.9867 13.36 22.6027 13.104 22.112ZM28.4285 13.504L28.2045 9.312C28.4178 8.66133 28.7752 8.08 29.2765 7.568C29.7885 7.056 30.3965 6.656 31.1005 6.368C31.8152 6.06933 32.5885 5.92 33.4205 5.92C33.6765 5.92 33.9325 5.936 34.1885 5.968C34.4445 6 34.6258 6.048 34.7325 6.112V11.84C34.5938 11.744 34.3752 11.648 34.0765 11.552C33.7778 11.4453 33.3565 11.392 32.8125 11.392C31.9592 11.392 31.2392 11.52 30.6525 11.776C30.0765 12.0213 29.6072 12.3093 29.2445 12.64C28.8925 12.9707 28.6205 13.2587 28.4285 13.504ZM22.9885 24V6.176H28.0445L28.3325 9.344L28.7805 9.824V24H22.9885ZM42.1985 24.256C41.0252 24.256 40.0012 24.016 39.1265 23.536C38.2625 23.0453 37.5905 22.3733 37.1105 21.52C36.6412 20.656 36.4065 19.6693 36.4065 18.56C36.4065 17.5147 36.6892 16.608 37.2545 15.84C37.8305 15.0613 38.6145 14.464 39.6065 14.048C40.3212 13.7387 41.0998 13.5093 41.9425 13.36C42.7852 13.2 43.6278 13.0933 44.4705 13.04C45.3238 12.9867 46.1238 12.96 46.8705 12.96L47.7025 13.984L46.8705 15.744C46.4972 15.7547 46.1078 15.7867 45.7025 15.84C45.3078 15.8827 44.9345 15.9467 44.5825 16.032C44.2305 16.1067 43.9478 16.192 43.7345 16.288C43.4038 16.4267 43.0892 16.6347 42.7905 16.912C42.5025 17.1787 42.3585 17.632 42.3585 18.272C42.3585 19.1147 42.5878 19.728 43.0465 20.112C43.5158 20.4853 44.0438 20.672 44.6305 20.672C44.9398 20.672 45.2438 20.6347 45.5425 20.56C45.8518 20.4853 46.1238 20.3947 46.3585 20.288C46.5932 20.1707 46.7638 20.0533 46.8705 19.936L47.7985 21.12L47.1585 22.496C46.6678 22.9227 46.0172 23.3227 45.2065 23.696C44.4065 24.0693 43.4038 24.256 42.1985 24.256ZM52.6305 24H47.1585V21.344H46.8705V11.904C46.8705 11.1147 46.6518 10.5973 46.2145 10.352C45.7878 10.1067 45.1745 9.984 44.3745 9.984C43.6918 9.984 42.9772 10.0373 42.2305 10.144C41.4945 10.2507 40.7798 10.4 40.0865 10.592C39.3932 10.7733 38.7852 10.9867 38.2625 11.232L37.0785 7.84C37.5158 7.57333 38.1452 7.29067 38.9665 6.992C39.7985 6.68267 40.7318 6.42133 41.7665 6.208C42.8012 5.99467 43.8518 5.888 44.9185 5.888C46.7852 5.888 48.2838 6.10667 49.4145 6.544C50.5452 6.98133 51.3612 7.69067 51.8625 8.672C52.3745 9.65333 52.6305 10.9653 52.6305 12.608V24ZM62.8445 24.256C61.5645 24.256 60.5405 24.0427 59.7725 23.616C59.0152 23.1893 58.4658 22.5493 58.1245 21.696C57.7938 20.832 57.6285 19.7547 57.6285 18.464V9.984H55.5805V6.912C56.3698 6.688 57.0205 6.45867 57.5325 6.224C58.0445 5.97867 58.4178 5.61067 58.6525 5.12C58.7698 4.87467 58.8978 4.58133 59.0365 4.24C59.1752 3.89867 59.3192 3.54133 59.4685 3.168C59.6178 2.79467 59.7618 2.44267 59.9005 2.112H63.4205V6.176H68.0285V9.984H63.4205V16.32C63.4205 17.4293 63.4792 18.24 63.5965 18.752C63.7245 19.264 63.9378 19.5893 64.2365 19.728C64.5352 19.8667 64.9458 19.936 65.4685 19.936C65.7352 19.936 66.0392 19.904 66.3805 19.84C66.7218 19.7653 67.0472 19.6747 67.3565 19.568C67.6658 19.4613 67.9112 19.3493 68.0925 19.232L68.7645 22.432C68.4872 22.7093 68.0445 22.992 67.4365 23.28C66.8392 23.5573 66.1405 23.792 65.3405 23.984C64.5405 24.1653 63.7085 24.256 62.8445 24.256ZM79.3873 24.256C77.7446 24.256 76.3473 24.0053 75.1953 23.504C74.0539 22.992 73.1366 22.2933 72.4433 21.408C71.7499 20.5227 71.2486 19.5093 70.9393 18.368C70.6299 17.216 70.4806 16 70.4913 14.72C70.5233 12.8213 70.9339 11.2213 71.7233 9.92C72.5126 8.61867 73.5953 7.632 74.9713 6.96C76.3473 6.288 77.9259 5.952 79.7073 5.952C81.9046 5.952 83.6539 6.38933 84.9553 7.264C86.2673 8.13867 87.2059 9.296 87.7713 10.736C88.3366 12.176 88.6033 13.7493 88.5713 15.456C88.5499 17.3653 88.1446 18.976 87.3553 20.288C86.5766 21.5893 85.4993 22.576 84.1233 23.248C82.7473 23.92 81.1686 24.256 79.3873 24.256ZM79.5153 20.256C80.6566 20.256 81.4459 19.84 81.8833 19.008C82.3313 18.1653 82.5553 16.896 82.5553 15.2C82.5553 14.24 82.4646 13.3653 82.2833 12.576C82.1019 11.776 81.7979 11.1413 81.3713 10.672C80.9446 10.192 80.3579 9.952 79.6113 9.952C78.4486 9.952 77.6379 10.3733 77.1793 11.216C76.7313 12.0587 76.5073 13.2907 76.5073 14.912C76.5073 15.8933 76.5979 16.7893 76.7793 17.6C76.9713 18.4107 77.2859 19.056 77.7233 19.536C78.1606 20.016 78.7579 20.256 79.5153 20.256ZM90.9073 22.816L91.4833 18.816C91.6539 18.9653 92.0059 19.168 92.5393 19.424C93.0833 19.6693 93.7233 19.8933 94.4593 20.096C95.1953 20.288 95.9526 20.384 96.7313 20.384C97.6593 20.3947 98.3206 20.2987 98.7153 20.096C99.1206 19.8827 99.3233 19.552 99.3233 19.104C99.3233 18.7947 99.1793 18.528 98.8913 18.304C98.6033 18.0693 98.2139 17.8507 97.7233 17.648C97.2326 17.4453 96.6886 17.2373 96.0913 17.024C94.7899 16.5547 93.7553 16.0373 92.9873 15.472C92.2299 14.9067 91.6859 14.272 91.3553 13.568C91.0246 12.8533 90.8646 12.0427 90.8753 11.136C90.8753 9.984 91.2059 9.024 91.8673 8.256C92.5393 7.488 93.4353 6.912 94.5553 6.528C95.6753 6.144 96.9126 5.952 98.2673 5.952C99.7286 5.952 100.95 6.08 101.931 6.336C102.913 6.58133 103.601 6.816 103.995 7.04L103.483 11.104C103.27 10.912 102.934 10.7093 102.475 10.496C102.017 10.2827 101.499 10.1013 100.923 9.952C100.347 9.80267 99.7713 9.728 99.1953 9.728C98.2033 9.728 97.4993 9.82933 97.0833 10.032C96.6779 10.2347 96.4753 10.5387 96.4753 10.944C96.4753 11.424 96.6939 11.776 97.1313 12C97.5686 12.224 98.2566 12.512 99.1953 12.864C100.603 13.376 101.734 13.8933 102.587 14.416C103.451 14.9387 104.075 15.5307 104.459 16.192C104.854 16.8533 105.051 17.6533 105.051 18.592C105.051 20.448 104.363 21.856 102.987 22.816C101.622 23.776 99.8033 24.256 97.5312 24.256C96.5499 24.256 95.6166 24.176 94.7313 24.016C93.8459 23.8667 93.0673 23.68 92.3953 23.456C91.7339 23.232 91.2379 23.0187 90.9073 22.816Z" fill="#0E0E0E"/>
</svg>
